<svg xmlns="http://www.w3.org/2000/svg" xmlns:xlink="http://www.w3.org/1999/xlink" width="490" zoomAndPan="magnify" viewBox="0 0 367.5 149.999998" height="200" preserveAspectRatio="xMidYMid meet" version="1.0"><defs><clipPath id="092e4ebf99"><path d="M 133.226562 48 L 152 48 L 152 67 L 133.226562 67 Z M 133.226562 48 " clip-rule="nonzero"/></clipPath><clipPath id="2ce35c4118"><path d="M 213 0.101562 L 217 0.101562 L 217 8 L 213 8 Z M 213 0.101562 " clip-rule="nonzero"/></clipPath><clipPath id="aba477103d"><path d="M 225 0.101562 L 228 0.101562 L 228 9 L 225 9 Z M 225 0.101562 " clip-rule="nonzero"/></clipPath><clipPath id="852d1fdde2"><path d="M 227 144 L 233.589844 144 L 233.589844 148 L 227 148 Z M 227 144 " clip-rule="nonzero"/></clipPath><clipPath id="a46f8f3af9"><path d="M 0.375 75 L 120.960938 75 L 120.960938 130.425781 L 0.375 130.425781 Z M 0.375 75 " clip-rule="nonzero"/></clipPath><clipPath id="8d720e11c4"><path d="M 245.757812 75 L 366.34375 75 L 366.34375 130.425781 L 245.757812 130.425781 Z M 245.757812 75 " clip-rule="nonzero"/></clipPath></defs><path fill="#f5876d" d="M 142.253906 57.296875 C 143.820312 52.601562 143.167969 48.339844 143.167969 48.339844 C 145.796875 46.320312 145.796875 46.320312 145.796875 46.320312 L 145.597656 35.464844 C 136.832031 36.679688 138.667969 42.957031 137.328125 46.007812 C 135.574219 49.996094 134.976562 56.859375 134.777344 59.738281 L 142.253906 57.296875 " fill-opacity="1" fill-rule="nonzero"/><path fill="#f5876d" d="M 164.480469 47.601562 C 164.480469 47.601562 165.773438 50.023438 167.722656 48.894531 C 167.722656 48.894531 167.378906 55.789062 171.308594 62.238281 C 171.308594 62.238281 171.894531 68.164062 173.480469 80.640625 L 175.640625 80.769531 C 175.640625 80.769531 176.585938 65.136719 176.585938 62.9375 C 176.585938 62.9375 176.914062 61.113281 176.265625 60.429688 C 176.265625 60.429688 176.535156 52.628906 173.625 46.007812 C 172.285156 42.957031 174.246094 36.679688 165.480469 35.464844 L 164.480469 47.601562 " fill-opacity="1" fill-rule="nonzero"/><path fill="#f5876d" d="M 168.535156 106.425781 C 168.023438 99.328125 170.859375 89.414062 166.675781 71.878906 C 166.652344 69.171875 165.867188 67.257812 165.273438 62.921875 C 164.597656 58.023438 167.257812 50.300781 167.265625 48.855469 C 167.292969 42.105469 165.796875 35.570312 165.796875 35.570312 C 164.683594 34.589844 155.933594 33 155.933594 33 C 155.933594 33 146.5625 34.589844 145.449219 35.570312 C 145.449219 35.570312 143.984375 45.9375 144.714844 48.855469 C 145.0625 50.246094 147.308594 58.308594 146.398438 63.113281 C 145.535156 67.65625 144.902344 69.578125 145.003906 72.566406 C 141.054688 89.675781 143.8125 99.421875 143.304688 106.425781 C 143.304688 106.425781 141.230469 114.632812 141.617188 124.601562 C 141.617188 124.601562 142.425781 134.433594 142.160156 136.761719 L 144.421875 139.375 C 146.734375 128.945312 151.140625 121.355469 149.269531 109.722656 C 149.269531 109.722656 149.679688 106.199219 151.183594 102.363281 C 153.054688 97.589844 154.175781 89.882812 154.789062 84.878906 L 157.050781 84.878906 C 157.664062 89.882812 158.785156 97.589844 160.65625 102.363281 C 162.164062 106.199219 162.570312 109.722656 162.570312 109.722656 C 160.703125 121.355469 165.105469 128.945312 167.417969 139.375 L 169.679688 136.761719 C 169.414062 134.433594 170.226562 124.601562 170.226562 124.601562 C 170.609375 114.632812 168.535156 106.425781 168.535156 106.425781 " fill-opacity="1" fill-rule="nonzero"/><path fill="#536e70" d="M 144.855469 139.988281 C 144.617188 140.625 145.621094 142.773438 144.957031 144.257812 C 144.375 145.558594 142.152344 147.507812 142.152344 147.507812 C 138.632812 148.9375 136.027344 147.375 135.722656 146.503906 C 135.417969 145.636719 135.976562 143.949219 137.609375 142.519531 C 139.242188 141.085938 140.773438 138.429688 140.773438 138.429688 L 140.773438 137.355469 C 140.875 136.484375 142.152344 136.433594 142.152344 136.433594 C 142.75 136.640625 143.222656 136.6875 143.585938 136.648438 C 143.585938 136.648438 144.089844 136.816406 143.785156 138.199219 C 143.785156 138.199219 144.394531 138.199219 144.828125 137.609375 C 144.828125 137.609375 145.621094 137.941406 144.855469 139.988281 " fill-opacity="1" fill-rule="nonzero"/><path fill="#ffffff" d="M 136.375 143.921875 C 136.375 143.921875 135.875 145.878906 136.375 146.300781 C 136.375 146.300781 138.707031 148.179688 141.570312 146.492188 C 144.039062 145.035156 145.097656 143.578125 145.039062 141.652344 C 145.039062 141.652344 145.320312 142.925781 145.191406 143.886719 C 145.058594 144.84375 141.730469 149.867188 137.671875 148.332031 C 133.617188 146.800781 136.375 143.921875 136.375 143.921875 " fill-opacity="1" fill-rule="nonzero"/><path fill="#ffffff" d="M 137.730469 142.410156 C 137.730469 142.410156 138.707031 142.300781 139.371094 142.621094 C 140.035156 142.9375 141.691406 144.117188 141.910156 144.089844 C 142.125 144.0625 142.355469 143.476562 141.984375 143.144531 C 141.617188 142.8125 140.222656 141.78125 138.367188 141.765625 C 138.367188 141.765625 137.683594 141.867188 137.730469 142.410156 " fill-opacity="1" fill-rule="nonzero"/><path fill="#ffffff" d="M 138.699219 141.335938 C 138.699219 141.335938 139.679688 141.226562 140.339844 141.546875 C 141.003906 141.867188 142.660156 143.042969 142.878906 143.015625 C 143.097656 142.988281 143.324219 142.402344 142.957031 142.070312 C 142.585938 141.738281 141.191406 140.710938 139.335938 140.695312 C 139.335938 140.695312 138.652344 140.792969 138.699219 141.335938 " fill-opacity="1" fill-rule="nonzero"/><path fill="#ffffff" d="M 139.59375 140.234375 C 139.59375 140.234375 140.570312 140.125 141.234375 140.449219 C 141.894531 140.765625 143.554688 141.941406 143.773438 141.917969 C 143.988281 141.890625 144.21875 141.304688 143.847656 140.972656 C 143.476562 140.636719 142.082031 139.609375 140.230469 139.59375 C 140.230469 139.59375 139.546875 139.695312 139.59375 140.234375 " fill-opacity="1" fill-rule="nonzero"/><path fill="#536e70" d="M 166.984375 139.988281 C 167.222656 140.625 166.222656 142.773438 166.882812 144.257812 C 167.464844 145.558594 169.6875 147.507812 169.6875 147.507812 C 173.210938 148.9375 175.8125 147.375 176.121094 146.503906 C 176.425781 145.636719 175.863281 143.949219 174.230469 142.519531 C 172.597656 141.085938 171.066406 138.429688 171.066406 138.429688 L 171.066406 137.355469 C 170.964844 136.484375 169.6875 136.433594 169.6875 136.433594 C 169.089844 136.640625 168.621094 136.6875 168.257812 136.648438 C 168.257812 136.648438 167.75 136.816406 168.058594 138.199219 C 168.058594 138.199219 167.445312 138.199219 167.011719 137.609375 C 167.011719 137.609375 166.222656 137.941406 166.984375 139.988281 " fill-opacity="1" fill-rule="nonzero"/><path fill="#ffffff" d="M 175.46875 143.921875 C 175.46875 143.921875 175.964844 145.878906 175.46875 146.300781 C 175.46875 146.300781 173.132812 148.179688 170.273438 146.492188 C 167.800781 145.035156 166.742188 143.578125 166.804688 141.652344 C 166.804688 141.652344 166.523438 142.925781 166.652344 143.886719 C 166.78125 144.84375 170.113281 149.867188 174.167969 148.332031 C 178.222656 146.800781 175.46875 143.921875 175.46875 143.921875 " fill-opacity="1" fill-rule="nonzero"/><path fill="#ffffff" d="M 174.109375 142.410156 C 174.109375 142.410156 173.132812 142.300781 172.46875 142.621094 C 171.808594 142.9375 170.148438 144.117188 169.933594 144.089844 C 169.714844 144.0625 169.484375 143.476562 169.855469 143.144531 C 170.226562 142.8125 171.621094 141.78125 173.476562 141.765625 C 173.476562 141.765625 174.15625 141.867188 174.109375 142.410156 " fill-opacity="1" fill-rule="nonzero"/><path fill="#ffffff" d="M 173.140625 141.335938 C 173.140625 141.335938 172.164062 141.226562 171.5 141.546875 C 170.835938 141.867188 169.179688 143.042969 168.964844 143.015625 C 168.746094 142.988281 168.515625 142.402344 168.886719 142.070312 C 169.257812 141.738281 170.652344 140.710938 172.507812 140.695312 C 172.507812 140.695312 173.1875 140.792969 173.140625 141.335938 " fill-opacity="1" fill-rule="nonzero"/><path fill="#ffffff" d="M 172.25 140.234375 C 172.25 140.234375 171.269531 140.125 170.609375 140.449219 C 169.945312 140.765625 168.289062 141.941406 168.070312 141.917969 C 167.851562 141.890625 167.621094 141.304688 167.992188 140.972656 C 168.363281 140.636719 169.757812 139.609375 171.613281 139.59375 C 171.613281 139.59375 172.292969 139.695312 172.25 140.234375 " fill-opacity="1" fill-rule="nonzero"/><path fill="#f5876d" d="M 160.269531 33.871094 C 159.929688 33.785156 159.722656 33.734375 159.722656 33.734375 C 157.960938 30.238281 158.273438 22.503906 158.273438 22.503906 C 158.273438 22.503906 152.492188 26.035156 152.445312 26.839844 C 152.25 30.070312 151.839844 33.0625 151.320312 34.160156 C 151.269531 34.277344 151.046875 34.410156 150.722656 34.542969 L 150.722656 41.414062 L 160.269531 39.960938 L 160.269531 33.871094 " fill-opacity="1" fill-rule="nonzero"/><path fill="#cf6556" d="M 159.289062 32.671875 C 158.707031 30.933594 158.441406 28.65625 158.332031 26.691406 L 153.4375 25.773438 C 152.855469 26.238281 152.457031 26.632812 152.445312 26.839844 C 152.367188 28.105469 152.257812 29.328125 152.121094 30.421875 C 153.441406 31.601562 156.664062 34.054688 159.289062 32.671875 " fill-opacity="1" fill-rule="nonzero"/><path fill="#f69374" d="M 160.773438 21.167969 C 160.839844 19.207031 160.742188 17.699219 160.742188 17.699219 C 160.5625 14.613281 157.929688 14.035156 155.3125 14.113281 C 152.695312 14.035156 150.0625 14.613281 149.882812 17.699219 C 149.882812 17.699219 149.785156 19.207031 149.851562 21.167969 C 148.324219 20.011719 147.707031 21.992188 148.203125 23.421875 C 148.636719 24.648438 149.796875 24.726562 150.167969 24.71875 C 150.214844 24.996094 150.261719 25.277344 150.316406 25.550781 C 150.742188 27.636719 153.253906 30.25 154.644531 30.828125 C 154.644531 30.828125 154.8125 30.914062 155.3125 30.914062 C 155.808594 30.914062 155.980469 30.828125 155.980469 30.828125 C 157.371094 30.25 159.886719 27.636719 160.308594 25.550781 C 160.363281 25.277344 160.414062 24.996094 160.457031 24.71875 C 160.828125 24.726562 161.988281 24.648438 162.421875 23.421875 C 162.917969 21.992188 162.296875 20.011719 160.773438 21.167969 " fill-opacity="1" fill-rule="nonzero"/><path fill="#361c15" d="M 160.921875 20.960938 C 160.921875 20.960938 160.453125 22.527344 160.097656 21.847656 C 159.816406 21.3125 159.414062 16.90625 159.414062 16.90625 C 155.496094 16.449219 150.757812 16.941406 150.757812 16.941406 C 150.324219 20.148438 150.386719 21.640625 150.160156 21.675781 C 149.925781 21.703125 149.371094 20.914062 149.371094 20.914062 C 149.371094 20.914062 149.003906 16.292969 149.5 14.742188 C 149.804688 13.785156 151.828125 11.246094 158.585938 12.5625 C 158.585938 12.5625 162.589844 13.242188 160.921875 20.960938 " fill-opacity="1" fill-rule="nonzero"/><path fill="#98ccef" d="M 162.570312 109.722656 C 161.03125 119.296875 163.742188 126.132812 166.039062 134.0625 C 167.417969 133.867188 168.609375 133.6875 169.667969 133.464844 C 169.804688 129.738281 170.226562 124.601562 170.226562 124.601562 C 170.609375 114.632812 168.535156 106.425781 168.535156 106.425781 C 168.023438 99.328125 170.859375 89.414062 166.675781 71.878906 C 166.667969 70.722656 166.515625 69.710938 166.304688 68.59375 C 153.757812 70.25 145.316406 68.570312 145.316406 68.570312 C 145.078125 69.929688 144.957031 71.125 145.003906 72.566406 C 141.054688 89.675781 143.8125 99.421875 143.304688 106.425781 C 143.304688 106.425781 141.230469 114.632812 141.617188 124.601562 C 141.617188 124.601562 142.097656 130.441406 142.195312 134.1875 C 143.167969 134.226562 145.460938 134.21875 146.910156 134.355469 C 149.222656 126.296875 150.828125 119.410156 149.269531 109.722656 C 149.269531 109.722656 149.679688 106.199219 151.183594 102.363281 C 152.53125 98.929688 153.484375 93.980469 154.144531 89.609375 C 154.488281 87.15625 154.71875 85.449219 154.789062 84.878906 L 157.050781 84.878906 C 157.664062 89.882812 158.785156 97.589844 160.65625 102.363281 C 162.164062 106.199219 162.570312 109.722656 162.570312 109.722656 " fill-opacity="1" fill-rule="nonzero"/><path fill="#70aac9" d="M 155.921875 40.125 C 149.957031 40.179688 149.785156 34.207031 149.785156 34.207031 C 147.828125 34.554688 148.277344 34.160156 147.828125 34.554688 C 147.828125 34.554688 148.511719 37.988281 144.714844 48.855469 C 144.242188 50.207031 147.308594 58.308594 146.398438 63.113281 C 145.90625 65.703125 145.492188 67.4375 145.242188 69.007812 C 145.242188 69.007812 156.460938 71.5625 166.378906 69.007812 C 166.089844 67.402344 165.644531 65.636719 165.273438 62.921875 C 164.597656 58.023438 168.039062 50.074219 167.265625 48.855469 C 164.125 43.917969 163.457031 34.511719 163.457031 34.511719 C 162.980469 34.09375 163.457031 34.511719 161.460938 34.152344 C 161.460938 34.152344 161.308594 40.074219 155.921875 40.125 " fill-opacity="1" fill-rule="nonzero"/><path fill="#f5876d" d="M 173.316406 79.355469 C 173.316406 79.355469 171.902344 84.027344 171.902344 84.925781 C 171.902344 84.925781 171.976562 85.453125 173.476562 83.421875 C 173.476562 83.421875 173.929688 85.152344 173.851562 86.507812 C 173.777344 87.863281 172.058594 90.421875 172.878906 90.871094 C 173.703125 91.324219 175.765625 86.957031 176.199219 83.5 C 176.632812 80.035156 175.804688 77.992188 175.804688 77.992188 L 173.316406 79.355469 " fill-opacity="1" fill-rule="nonzero"/><g clip-path="url(#092e4ebf99)"><path fill="#f5876d" d="M 149.667969 48.171875 C 149.667969 48.171875 137.117188 56.949219 135.195312 59.136719 C 133.273438 61.320312 133.347656 65.074219 133.851562 65.691406 C 134.355469 66.308594 139.796875 70.492188 151.101562 49.996094 L 149.667969 48.171875 " fill-opacity="1" fill-rule="nonzero"/></g><path fill="#ffffff" d="M 147.132812 34.878906 C 147.132812 34.878906 150.3125 45.632812 150.722656 46.367188 L 152.429688 45.914062 C 152.429688 45.914062 151.886719 33.726562 150.722656 33.328125 C 150.722656 33.328125 150.003906 33.386719 149.667969 33.726562 C 149.667969 33.726562 148.597656 33.265625 148.035156 34.152344 C 148.035156 34.152344 147.359375 34.152344 147.132812 34.878906 " fill-opacity="1" fill-rule="nonzero"/><path fill="#f5876d" d="M 149.667969 48.171875 C 149.667969 48.171875 149.734375 46.140625 150.050781 45.6875 C 150.367188 45.238281 152.839844 44.109375 153.285156 44.164062 C 153.726562 44.222656 154.046875 45.238281 153.917969 45.6875 C 153.917969 45.6875 154.238281 46.082031 154.238281 46.480469 C 154.238281 46.480469 154.617188 47.199219 154.488281 47.542969 C 154.488281 47.542969 154.921875 48.113281 154.515625 48.453125 C 154.109375 48.792969 151.253906 51.105469 150.300781 50.371094 L 149.667969 48.171875 " fill-opacity="1" fill-rule="nonzero"/><path fill="#ffffff" d="M 151.414062 49.695312 C 151.414062 49.695312 148.542969 63.691406 148.597656 64.988281 C 148.597656 64.988281 148.652344 65.101562 149.667969 65.496094 C 149.667969 65.496094 150.0625 66.738281 151.753906 66.738281 C 151.753906 66.738281 152.710938 66.683594 153.386719 66.0625 C 153.386719 66.0625 154.117188 66.117188 154.398438 65.441406 L 152.992188 48.621094 L 151.414062 49.695312 " fill-opacity="1" fill-rule="nonzero"/><path fill="#361c15" d="M 150.136719 19.859375 C 150.136719 19.859375 150.476562 28.589844 154.117188 29.003906 C 157.175781 29.351562 159.632812 28.65625 159.921875 21.148438 L 160.652344 20.988281 C 160.652344 20.988281 160.410156 25.617188 160.269531 26.558594 C 160.125 27.496094 159.183594 31.109375 155.164062 31.183594 C 155.164062 31.183594 149.242188 31.675781 149.6875 20.988281 L 150.136719 19.859375 " fill-opacity="1" fill-rule="nonzero"/><path fill="#361c15" d="M 153.230469 29.152344 C 153.230469 29.152344 151.898438 25.769531 155.023438 25.917969 C 155.023438 25.917969 155.351562 25.882812 155.417969 25.523438 C 155.417969 25.523438 153.976562 24.984375 152.628906 26.066406 C 151.453125 27.015625 152.628906 28.742188 152.628906 28.742188 L 153.230469 29.152344 " fill-opacity="1" fill-rule="nonzero"/><path fill="#361c15" d="M 157.394531 29.152344 C 157.394531 29.152344 158.722656 25.769531 155.601562 25.917969 C 155.601562 25.917969 155.273438 25.882812 155.207031 25.523438 C 155.207031 25.523438 156.648438 24.984375 157.996094 26.066406 C 159.171875 27.015625 157.996094 28.742188 157.996094 28.742188 L 157.394531 29.152344 " fill-opacity="1" fill-rule="nonzero"/><path fill="#361c15" d="M 199.777344 31.507812 C 199.777344 31.507812 197.769531 32.824219 197.4375 36.128906 C 197.101562 39.433594 196.230469 40.492188 195.246094 40.546875 C 195.246094 40.546875 201.894531 42.5 201.78125 34.6875 L 199.777344 31.507812 " fill-opacity="1" fill-rule="nonzero"/><path fill="#3d3673" d="M 183.089844 39.765625 L 172.371094 39.765625 L 172.371094 37.765625 L 183.089844 37.765625 L 183.089844 39.765625 " fill-opacity="1" fill-rule="nonzero"/><path fill="#f5876d" d="M 195.230469 43.492188 C 195.230469 43.492188 180.589844 56.980469 179.367188 57.960938 C 179.367188 57.960938 178.707031 60.246094 181.378906 62.007812 L 195.246094 51.210938 L 195.230469 43.492188 " fill-opacity="1" fill-rule="nonzero"/><path fill="#f5876d" d="M 183.394531 58.472656 C 183.394531 58.472656 179.390625 47.292969 177.941406 41.375 L 176.207031 39.273438 C 176.207031 39.273438 175.734375 58.640625 178.921875 61.554688 C 182.105469 64.472656 183.394531 58.472656 183.394531 58.472656 " fill-opacity="1" fill-rule="nonzero"/><path fill="#f5876d" d="M 176.1875 40.792969 C 176.1875 40.792969 174.710938 38.324219 175.378906 36.84375 C 175.378906 36.84375 175.390625 36.34375 175.695312 36.191406 C 176.003906 36.039062 176.511719 36.160156 176.894531 36.558594 C 177.285156 36.960938 177.867188 36.972656 178.214844 37.175781 C 178.566406 37.375 179.109375 37.828125 179.167969 38.15625 C 179.226562 38.480469 179.1875 40.21875 178.042969 41.785156 L 176.1875 40.792969 " fill-opacity="1" fill-rule="nonzero"/><path fill="#3d3673" d="M 184.339844 42.011719 C 184.339844 42.21875 184.167969 42.386719 183.960938 42.386719 L 182.839844 42.386719 C 182.632812 42.386719 182.46875 42.21875 182.46875 42.011719 L 182.46875 35.390625 C 182.46875 35.183594 182.632812 35.015625 182.839844 35.015625 L 183.960938 35.015625 C 184.167969 35.015625 184.339844 35.183594 184.339844 35.390625 L 184.339844 42.011719 " fill-opacity="1" fill-rule="nonzero"/><path fill="#3d3673" d="M 172.996094 41.886719 C 172.996094 42.097656 172.824219 42.261719 172.621094 42.261719 L 171.5 42.261719 C 171.292969 42.261719 171.125 42.097656 171.125 41.886719 L 171.125 35.265625 C 171.125 35.058594 171.292969 34.890625 171.5 34.890625 L 172.621094 34.890625 C 172.824219 34.890625 172.996094 35.058594 172.996094 35.265625 L 172.996094 41.886719 " fill-opacity="1" fill-rule="nonzero"/><path fill="#3d3673" d="M 215.34375 4.894531 L 226.035156 5.660156 L 226.179688 3.664062 L 215.484375 2.902344 L 215.34375 4.894531 " fill-opacity="1" fill-rule="nonzero"/><path fill="#f5876d" d="M 211.949219 43.492188 C 211.949219 43.492188 217.246094 26.128906 217.582031 24.601562 C 217.582031 24.601562 220.097656 23.105469 221.523438 26.316406 L 216.625 51.261719 L 211.949219 43.492188 " fill-opacity="1" fill-rule="nonzero"/><path fill="#f5876d" d="M 217.460938 25.085938 C 217.460938 25.085938 219.785156 13.03125 220.417969 6.976562 L 221.925781 5.660156 C 221.925781 5.660156 223.359375 22.839844 221.207031 27.9375 C 219.523438 31.921875 217.460938 25.085938 217.460938 25.085938 " fill-opacity="1" fill-rule="nonzero"/><path fill="#f5876d" d="M 222.140625 7.53125 C 222.140625 7.53125 223.804688 4.058594 223.242188 2.53125 C 223.242188 2.53125 223.269531 2.03125 222.972656 1.859375 C 222.675781 1.683594 222.160156 1.769531 221.75 2.140625 C 221.332031 2.511719 220.753906 2.484375 220.390625 2.660156 C 220.027344 2.835938 219.453125 3.246094 219.371094 3.570312 C 219.285156 3.886719 219.273438 6.308594 220.304688 7.957031 L 222.140625 7.53125 " fill-opacity="1" fill-rule="nonzero"/><g clip-path="url(#2ce35c4118)"><path fill="#3d3673" d="M 213.9375 7.046875 C 213.925781 7.257812 214.085938 7.4375 214.289062 7.453125 L 215.410156 7.53125 C 215.613281 7.542969 215.789062 7.386719 215.800781 7.183594 L 216.273438 0.578125 C 216.285156 0.371094 216.136719 0.191406 215.929688 0.175781 L 214.8125 0.0976562 C 214.605469 0.0859375 214.421875 0.238281 214.410156 0.445312 L 213.9375 7.046875 " fill-opacity="1" fill-rule="nonzero"/></g><g clip-path="url(#aba477103d)"><path fill="#3d3673" d="M 225.261719 7.730469 C 225.25 7.9375 225.402344 8.113281 225.609375 8.128906 L 226.726562 8.210938 C 226.933594 8.226562 227.117188 8.074219 227.132812 7.867188 L 227.597656 1.261719 C 227.613281 1.050781 227.457031 0.875 227.25 0.859375 L 226.132812 0.78125 C 225.925781 0.765625 225.75 0.921875 225.734375 1.128906 L 225.261719 7.730469 " fill-opacity="1" fill-rule="nonzero"/></g><path fill="#f5876d" d="M 210.363281 42.175781 C 210.019531 42.089844 209.808594 42.042969 209.808594 42.042969 C 208.007812 38.46875 208.328125 30.570312 208.328125 30.570312 C 208.328125 30.570312 202.421875 34.175781 202.375 35 C 202.171875 38.300781 201.757812 41.355469 201.226562 42.476562 C 201.171875 42.597656 200.949219 42.730469 200.613281 42.867188 L 200.613281 49.886719 L 210.363281 48.398438 L 210.363281 42.175781 " fill-opacity="1" fill-rule="nonzero"/><path fill="#cf6556" d="M 209.363281 40.957031 C 208.769531 39.183594 208.5 36.851562 208.386719 34.847656 L 203.390625 33.910156 C 202.792969 34.386719 202.386719 34.785156 202.375 35 C 202.296875 36.289062 202.183594 37.539062 202.042969 38.65625 C 203.394531 39.863281 206.683594 42.367188 209.363281 40.957031 " fill-opacity="1" fill-rule="nonzero"/><path fill="#f69374" d="M 210.878906 29.207031 C 210.945312 27.203125 210.847656 25.667969 210.847656 25.667969 C 210.667969 22.511719 207.976562 21.925781 205.304688 22 C 202.632812 21.925781 199.941406 22.511719 199.757812 25.667969 C 199.757812 25.667969 199.660156 27.203125 199.726562 29.207031 C 198.167969 28.023438 197.535156 30.046875 198.042969 31.507812 C 198.484375 32.761719 199.667969 32.839844 200.050781 32.832031 C 200.09375 33.117188 200.144531 33.402344 200.199219 33.683594 C 200.632812 35.8125 203.203125 38.480469 204.621094 39.074219 C 204.621094 39.074219 204.796875 39.164062 205.304688 39.160156 C 205.808594 39.164062 205.984375 39.074219 205.984375 39.074219 C 207.402344 38.480469 209.972656 35.8125 210.402344 33.683594 C 210.460938 33.402344 210.511719 33.117188 210.558594 32.832031 C 210.9375 32.839844 212.121094 32.761719 212.5625 31.507812 C 213.070312 30.046875 212.4375 28.023438 210.878906 29.207031 " fill-opacity="1" fill-rule="nonzero"/><path fill="#361c15" d="M 199.234375 28.949219 C 199.234375 28.949219 199.804688 29.753906 200.039062 29.722656 C 200.273438 29.691406 200.207031 28.167969 200.652344 24.890625 C 200.652344 24.890625 205.691406 26.117188 209.492188 24.855469 C 209.492188 24.855469 209.902344 29.355469 210.1875 29.902344 C 210.550781 30.59375 211.035156 28.996094 211.035156 28.996094 C 211.035156 28.996094 212.332031 20.125 205.296875 20.410156 C 205.296875 20.410156 197.71875 19.90625 199.234375 28.949219 " fill-opacity="1" fill-rule="nonzero"/><path fill="#f5876d" d="M 196.601562 59.082031 C 196.601562 59.082031 198.136719 64.617188 197.230469 69.078125 C 196.585938 72.253906 195.929688 74.046875 195.679688 75.925781 L 195.675781 75.925781 C 195.667969 75.972656 195.664062 76.019531 195.65625 76.066406 L 214.957031 76.066406 C 214.949219 76.019531 214.941406 75.972656 214.933594 75.925781 L 214.929688 75.929688 C 214.675781 74.050781 214.023438 72.253906 213.375 69.078125 C 212.46875 64.617188 214.003906 59.082031 214.003906 59.082031 C 215.621094 57.964844 216.492188 56.53125 216.847656 54.195312 C 217.046875 52.871094 215.375 43.492188 215.375 43.492188 C 214.242188 42.582031 205.304688 41.105469 205.304688 41.105469 C 205.304688 41.105469 196.367188 42.582031 195.230469 43.492188 C 195.230469 43.492188 193.6875 53.226562 193.847656 54.558594 C 194.09375 56.640625 194.984375 57.964844 196.601562 59.082031 " fill-opacity="1" fill-rule="nonzero"/><path fill="#f5876d" d="M 204.226562 92.597656 L 194.203125 92.597656 C 193.929688 97.871094 193.691406 104.058594 193.375 111.65625 C 193.375 111.65625 192.851562 115.144531 193.082031 116.667969 C 193.082031 116.667969 190.703125 136.890625 189.933594 141.746094 L 192.066406 142.445312 C 194.4375 135.046875 198.476562 126.933594 197.871094 114.507812 C 197.871094 114.507812 198.570312 111.160156 200.035156 107.214844 C 201.464844 103.371094 203.0625 97.441406 204.226562 92.597656 " fill-opacity="1" fill-rule="nonzero"/><path fill="#1d2a40" d="M 207.546875 93.539062 L 215.054688 94.039062 C 216.863281 88.863281 215.566406 80.121094 214.933594 75.925781 L 214.929688 75.929688 C 214.777344 74.804688 214.484375 73.710938 214.132812 72.335938 C 208.863281 73.558594 205.457031 73.238281 205.457031 73.238281 C 205.457031 73.238281 202.6875 73.558594 196.472656 72.335938 C 196.121094 73.710938 195.828125 74.804688 195.679688 75.925781 L 195.675781 75.925781 C 194.695312 82.441406 194.285156 89.847656 193.828125 100.730469 C 195.421875 101.640625 198.171875 103.023438 201.210938 103.726562 C 202.628906 99.175781 204.054688 93.492188 204.957031 89.476562 L 205.304688 89.523438 L 205.65625 89.476562 C 205.714844 89.742188 206.414062 91.761719 207.546875 93.539062 " fill-opacity="1" fill-rule="nonzero"/><path fill="#1d2a40" d="M 205.367188 47.359375 C 201.355469 47.328125 200.621094 41.972656 200.621094 41.972656 C 199.820312 42.136719 199.003906 42.3125 198.257812 42.492188 C 197.269531 44.835938 195.53125 48.824219 194.117188 51.261719 C 193.921875 52.828125 193.796875 54.128906 193.847656 54.558594 C 194.09375 56.640625 194.984375 57.964844 196.601562 59.082031 C 196.601562 59.082031 197.265625 61.476562 197.460938 64.382812 L 213.277344 64.382812 C 213.472656 61.476562 214.136719 59.082031 214.136719 59.082031 C 215.753906 57.964844 216.644531 56.640625 216.890625 54.558594 C 216.941406 54.128906 216.816406 52.828125 216.625 51.261719 C 215.207031 48.824219 213.46875 44.835938 212.480469 42.492188 C 211.808594 42.332031 211.085938 42.171875 210.363281 42.023438 C 210.363281 42.023438 209.996094 47.390625 205.367188 47.359375 " fill-opacity="1" fill-rule="nonzero"/><path fill="#f696d0" d="M 189.273438 140.5 C 189.273438 140.5 190.828125 140.425781 191.1875 141.078125 C 191.277344 141.238281 191.070312 141.757812 191.007812 141.96875 C 191.007812 141.96875 191.359375 142.199219 192.140625 142.199219 C 192.140625 142.199219 192.527344 144.148438 191.886719 145.828125 C 191.886719 145.828125 191.894531 146.519531 189.191406 146.6875 C 189.191406 146.6875 188.25 146.574219 187.96875 146.628906 C 187.691406 146.683594 186.449219 146.785156 184.609375 147.34375 C 182.769531 147.902344 181.03125 147.402344 180.917969 146.789062 C 180.804688 146.175781 180.527344 145.136719 182.253906 144.390625 C 183.359375 143.910156 186.160156 142.667969 188.367188 141.71875 C 189.039062 141.429688 189.027344 140.777344 189.273438 140.5 " fill-opacity="1" fill-rule="nonzero"/><path fill="#cb2599" d="M 187.84375 141.949219 C 187.84375 141.949219 189.117188 142.171875 189.375 143.269531 C 189.375 143.269531 189.46875 143.734375 189.082031 143.644531 C 189.082031 143.644531 188.433594 142.617188 187.34375 142.164062 C 187.34375 142.164062 187.363281 141.929688 187.84375 141.949219 " fill-opacity="1" fill-rule="nonzero"/><path fill="#cb2599" d="M 186.710938 142.464844 C 186.710938 142.464844 188.167969 142.71875 188.351562 143.851562 C 188.351562 143.851562 188.445312 144.136719 188.113281 144.152344 C 188.113281 144.152344 187.453125 142.855469 186.160156 142.667969 C 186.160156 142.667969 186.390625 142.375 186.710938 142.464844 " fill-opacity="1" fill-rule="nonzero"/><path fill="#cb2599" d="M 185.882812 142.847656 C 185.882812 142.847656 187.339844 143.101562 187.527344 144.238281 C 187.527344 144.238281 187.621094 144.519531 187.285156 144.535156 C 187.285156 144.535156 186.625 143.238281 185.332031 143.050781 C 185.332031 143.050781 185.5625 142.761719 185.882812 142.847656 " fill-opacity="1" fill-rule="nonzero"/><path fill="#cb2599" d="M 185 143.207031 C 185 143.207031 186.460938 143.460938 186.644531 144.597656 C 186.644531 144.597656 186.738281 144.878906 186.402344 144.894531 C 186.402344 144.894531 185.746094 143.597656 184.449219 143.40625 C 184.449219 143.40625 184.679688 143.121094 185 143.207031 " fill-opacity="1" fill-rule="nonzero"/><path fill="#cb2599" d="M 191.007812 141.96875 C 191.007812 141.96875 190.839844 142.304688 190.925781 142.375 C 191.007812 142.445312 192.007812 142.832031 192.203125 142.765625 C 192.402344 142.703125 192.328125 142.246094 192.167969 142.136719 C 192.167969 142.136719 191.117188 142 191.007812 141.96875 " fill-opacity="1" fill-rule="nonzero"/><path fill="#cb2599" d="M 189.023438 145.847656 C 188.550781 145.847656 186.292969 145.933594 184.226562 146.492188 C 182.160156 147.050781 180.828125 146.113281 180.828125 146.109375 C 180.832031 146.363281 180.882812 146.597656 180.917969 146.789062 C 181.03125 147.402344 182.769531 147.902344 184.609375 147.34375 C 186.449219 146.785156 187.691406 146.683594 187.96875 146.628906 C 188.25 146.574219 189.191406 146.6875 189.191406 146.6875 C 191.894531 146.519531 191.886719 145.828125 191.886719 145.828125 C 191.945312 145.671875 191.996094 145.511719 192.039062 145.351562 C 191.175781 145.871094 189.445312 145.847656 189.023438 145.847656 " fill-opacity="1" fill-rule="nonzero"/><path fill="#f5876d" d="M 209.34375 123.445312 L 212.695312 123.445312 C 212.695312 123.445312 215.296875 90.628906 214.753906 87.320312 C 214.039062 82.980469 207.429688 82.597656 207.371094 88.03125 C 207.316406 93.328125 209.34375 123.445312 209.34375 123.445312 " fill-opacity="1" fill-rule="nonzero"/><path fill="#7f9ac6" d="M 225.042969 146.148438 L 222.367188 136.054688 L 182.285156 136.054688 L 179.609375 146.148438 L 176.230469 145.320312 L 179.554688 132.570312 L 225.09375 132.570312 L 228.417969 145.320312 L 225.042969 146.148438 " fill-opacity="1" fill-rule="nonzero"/><path fill="#0c1218" d="M 229.207031 147.410156 C 229.207031 147.507812 229.128906 147.585938 229.035156 147.585938 L 224.507812 147.585938 C 224.410156 147.585938 224.335938 147.507812 224.335938 147.410156 L 224.335938 144.886719 C 224.335938 144.789062 224.410156 144.710938 224.507812 144.710938 L 229.035156 144.710938 C 229.128906 144.710938 229.207031 144.789062 229.207031 144.886719 L 229.207031 147.410156 " fill-opacity="1" fill-rule="nonzero"/><path fill="#0c1218" d="M 180.367188 147.410156 C 180.367188 147.507812 180.289062 147.585938 180.191406 147.585938 L 175.667969 147.585938 C 175.570312 147.585938 175.492188 147.507812 175.492188 147.410156 L 175.492188 144.886719 C 175.492188 144.789062 175.570312 144.710938 175.667969 144.710938 L 180.191406 144.710938 C 180.289062 144.710938 180.367188 144.789062 180.367188 144.886719 L 180.367188 147.410156 " fill-opacity="1" fill-rule="nonzero"/><path fill="#313d4e" d="M 225.109375 127.46875 L 179.535156 127.46875 C 176.445312 128.367188 176.742188 130.863281 176.742188 130.863281 L 199.53125 131.261719 L 227.902344 130.863281 C 227.902344 130.863281 228.199219 128.367188 225.109375 127.46875 " fill-opacity="1" fill-rule="nonzero"/><path fill="#222b39" d="M 177.347656 128.867188 C 176.621094 129.839844 176.742188 130.863281 176.742188 130.863281 L 199.53125 131.261719 L 227.902344 130.863281 C 227.902344 130.863281 228.023438 129.839844 227.296875 128.867188 L 177.347656 128.867188 " fill-opacity="1" fill-rule="nonzero"/><path fill="#b7c9e6" d="M 228.769531 145.9375 L 225.703125 134.367188 L 178.941406 134.367188 L 175.875 145.9375 L 172 144.988281 L 175.8125 130.371094 L 228.832031 130.371094 L 232.640625 144.988281 L 228.769531 145.9375 " fill-opacity="1" fill-rule="nonzero"/><g clip-path="url(#852d1fdde2)"><path fill="#141c27" d="M 233.546875 147.386719 C 233.546875 147.496094 233.457031 147.585938 233.347656 147.585938 L 228.15625 147.585938 C 228.046875 147.585938 227.960938 147.496094 227.960938 147.386719 L 227.960938 144.492188 C 227.960938 144.378906 228.046875 144.289062 228.15625 144.289062 L 233.347656 144.289062 C 233.457031 144.289062 233.546875 144.378906 233.546875 144.492188 L 233.546875 147.386719 " fill-opacity="1" fill-rule="nonzero"/></g><path fill="#141c27" d="M 176.742188 147.386719 C 176.742188 147.496094 176.652344 147.585938 176.542969 147.585938 L 171.355469 147.585938 C 171.246094 147.585938 171.15625 147.496094 171.15625 147.386719 L 171.15625 144.492188 C 171.15625 144.378906 171.246094 144.289062 171.355469 144.289062 L 176.542969 144.289062 C 176.652344 144.289062 176.742188 144.378906 176.742188 144.492188 L 176.742188 147.386719 " fill-opacity="1" fill-rule="nonzero"/><path fill="#f696d0" d="M 209.136719 120.324219 C 209.136719 120.324219 208.664062 120.640625 208.609375 121.386719 C 208.53125 122.519531 208.917969 123.652344 208.265625 124.824219 C 206.738281 127.574219 207.90625 128.0625 208.226562 128.242188 C 208.226562 128.242188 212.164062 128.667969 213.261719 128.242188 C 213.261719 128.242188 214.859375 128.0625 213.472656 125.039062 C 213.472656 125.039062 213.082031 123.820312 213.246094 123.140625 C 213.8125 120.757812 213.324219 120.425781 212.984375 120.214844 L 212.875 120.859375 C 212.875 120.859375 212.09375 121.105469 212.128906 120.875 C 212.261719 119.996094 211.789062 119.992188 211.789062 119.992188 C 211.675781 119.929688 210.433594 119.6875 210.078125 119.976562 C 209.722656 120.265625 209.953125 120.75 209.742188 120.820312 C 209.527344 120.890625 209.402344 120.929688 209.136719 120.324219 " fill-opacity="1" fill-rule="nonzero"/><path fill="#cb2599" d="M 209.167969 122.304688 C 209.167969 122.304688 210.9375 121.183594 212.578125 122.304688 C 212.578125 122.304688 212.789062 122.464844 212.671875 122.640625 C 212.550781 122.8125 212.351562 122.582031 212.128906 122.5 C 211.902344 122.421875 210.738281 122.011719 209.5 122.53125 C 209.5 122.53125 209.105469 122.824219 208.984375 122.652344 C 208.863281 122.480469 209.167969 122.304688 209.167969 122.304688 " fill-opacity="1" fill-rule="nonzero"/><path fill="#cb2599" d="M 209.167969 123.238281 C 209.167969 123.238281 210.9375 122.117188 212.578125 123.238281 C 212.578125 123.238281 212.789062 123.398438 212.671875 123.574219 C 212.550781 123.746094 212.351562 123.515625 212.128906 123.433594 C 211.902344 123.355469 210.738281 122.945312 209.5 123.464844 C 209.5 123.464844 209.105469 123.757812 208.984375 123.585938 C 208.863281 123.414062 209.167969 123.238281 209.167969 123.238281 " fill-opacity="1" fill-rule="nonzero"/><path fill="#cb2599" d="M 209.167969 124.171875 C 209.167969 124.171875 210.9375 123.050781 212.578125 124.171875 C 212.578125 124.171875 212.789062 124.332031 212.671875 124.503906 C 212.550781 124.679688 212.351562 124.449219 212.128906 124.367188 C 211.902344 124.285156 210.738281 123.878906 209.5 124.398438 C 209.5 124.398438 209.105469 124.691406 208.984375 124.519531 C 208.863281 124.347656 209.167969 124.171875 209.167969 124.171875 " fill-opacity="1" fill-rule="nonzero"/><path fill="#cb2599" d="M 209.167969 125.105469 C 209.167969 125.105469 210.9375 123.984375 212.578125 125.105469 C 212.578125 125.105469 212.789062 125.265625 212.671875 125.4375 C 212.550781 125.613281 212.351562 125.382812 212.128906 125.300781 C 211.902344 125.21875 210.738281 124.8125 209.5 125.332031 C 209.5 125.332031 209.105469 125.625 208.984375 125.453125 C 208.863281 125.277344 209.167969 125.105469 209.167969 125.105469 " fill-opacity="1" fill-rule="nonzero"/><path fill="#cb2599" d="M 208.609375 121.386719 L 208.605469 121.472656 C 208.925781 121.566406 209.511719 121.679688 209.777344 121.320312 C 209.777344 121.320312 209.808594 120.949219 209.839844 120.671875 C 209.828125 120.746094 209.800781 120.800781 209.742188 120.820312 C 209.527344 120.890625 209.402344 120.929688 209.136719 120.324219 C 209.136719 120.324219 208.664062 120.640625 208.609375 121.386719 " fill-opacity="1" fill-rule="nonzero"/><path fill="#cb2599" d="M 213.5 121.589844 C 213.550781 120.585938 213.230469 120.367188 212.984375 120.214844 L 212.875 120.859375 C 212.875 120.859375 212.199219 121.074219 212.132812 120.917969 C 212.121094 121.199219 212.121094 121.570312 212.191406 121.621094 C 212.277344 121.679688 213.003906 121.800781 213.5 121.589844 " fill-opacity="1" fill-rule="nonzero"/><path fill="#cb2599" d="M 212.140625 120.777344 C 212.148438 120.710938 212.152344 120.648438 212.152344 120.59375 C 212.152344 120.601562 212.144531 120.671875 212.140625 120.777344 " fill-opacity="1" fill-rule="nonzero"/><path fill="#cb2599" d="M 207.636719 126.242188 C 207.636719 126.242188 207.496094 126.410156 207.371094 126.714844 C 207.246094 127.015625 207.410156 128.105469 207.851562 128.433594 C 208.296875 128.757812 212.375 128.816406 213.652344 128.433594 C 213.652344 128.433594 214.515625 127.675781 213.953125 126.378906 C 213.953125 126.378906 213.847656 127.816406 213.015625 127.746094 C 212.179688 127.671875 211.0625 126.574219 209.074219 127.65625 C 209.074219 127.65625 207.472656 128.171875 207.636719 126.242188 " fill-opacity="1" fill-rule="nonzero"/><g clip-path="url(#a46f8f3af9)"><path fill="#1d5964" d="M 114.980469 75 L 6.621094 75 C 3.25 75 0.507812 77.742188 0.507812 81.113281 L 0.507812 130.148438 L 4 130.148438 L 4 121.90625 L 117.597656 121.90625 L 117.597656 130.148438 L 121.09375 130.148438 L 121.09375 81.113281 C 121.09375 77.742188 118.351562 75 114.980469 75 Z M 6.621094 78.492188 L 114.980469 78.492188 C 116.425781 78.492188 117.597656 79.667969 117.597656 81.113281 L 117.597656 88.722656 L 4 88.722656 L 4 81.113281 C 4 79.667969 5.175781 78.492188 6.621094 78.492188 Z M 30.867188 90.902344 L 30.867188 119.722656 L 13.824219 119.722656 L 13.824219 90.902344 Z M 33.050781 90.902344 L 50.09375 90.902344 L 50.09375 119.722656 L 33.050781 119.722656 Z M 52.277344 90.902344 L 69.320312 90.902344 L 69.320312 119.722656 L 52.277344 119.722656 Z M 71.503906 90.902344 L 88.546875 90.902344 L 88.546875 119.722656 L 71.503906 119.722656 Z M 90.730469 90.902344 L 107.773438 90.902344 L 107.773438 119.722656 L 90.730469 119.722656 Z M 4 90.902344 L 11.640625 90.902344 L 11.640625 119.722656 L 4 119.722656 Z M 109.957031 119.722656 L 109.957031 90.902344 L 117.597656 90.902344 L 117.597656 119.722656 Z M 109.957031 119.722656 " fill-opacity="1" fill-rule="nonzero"/></g><g clip-path="url(#8d720e11c4)"><path fill="#1d5964" d="M 360.363281 75 L 252.003906 75 C 248.632812 75 245.890625 77.742188 245.890625 81.113281 L 245.890625 130.148438 L 249.382812 130.148438 L 249.382812 121.90625 L 362.984375 121.90625 L 362.984375 130.148438 L 366.476562 130.148438 L 366.476562 81.113281 C 366.476562 77.742188 363.734375 75 360.363281 75 Z M 252.003906 78.492188 L 360.363281 78.492188 C 361.808594 78.492188 362.984375 79.667969 362.984375 81.113281 L 362.984375 88.722656 L 249.382812 88.722656 L 249.382812 81.113281 C 249.382812 79.667969 250.558594 78.492188 252.003906 78.492188 Z M 276.25 90.902344 L 276.25 119.722656 L 259.207031 119.722656 L 259.207031 90.902344 Z M 278.433594 90.902344 L 295.476562 90.902344 L 295.476562 119.722656 L 278.433594 119.722656 Z M 297.660156 90.902344 L 314.707031 90.902344 L 314.707031 119.722656 L 297.660156 119.722656 Z M 316.886719 90.902344 L 333.933594 90.902344 L 333.933594 119.722656 L 316.886719 119.722656 Z M 336.113281 90.902344 L 353.160156 90.902344 L 353.160156 119.722656 L 336.113281 119.722656 Z M 249.382812 90.902344 L 257.023438 90.902344 L 257.023438 119.722656 L 249.382812 119.722656 Z M 355.34375 119.722656 L 355.34375 90.902344 L 362.984375 90.902344 L 362.984375 119.722656 Z M 355.34375 119.722656 " fill-opacity="1" fill-rule="nonzero"/></g></svg>